<svg width="161" height="30" viewBox="0 0 161 30" fill="none" xmlns="http://www.w3.org/2000/svg">
<path fill-rule="evenodd" clip-rule="evenodd" d="M151.317 6.70354C144.301 6.70794 137.284 6.7146 130.268 6.70416C129.381 6.70273 128.674 6.66496 128.076 7.15289C126.508 8.43073 127.6 10.7151 128.188 13.253C128.525 14.7086 128.846 16.1056 129.173 17.5479C130.099 21.6327 131.806 20.9276 136.262 20.9276C138.054 20.9276 139.653 21.0291 141.443 21.0291C143.204 21.0291 144.965 21.0291 146.726 21.0291C147.481 21.0291 148.67 20.8394 148.985 21.4158C149.481 22.324 148.695 22.7563 147.849 22.7599C142.85 22.782 136.84 22.6336 131.988 22.7507C131.126 22.7713 130.6 23.5157 131.168 24.1915C131.597 24.7018 132.771 24.4871 133.512 24.5219C131.068 25.8209 132.193 28.6292 134.23 28.6526C136.075 28.6741 137.615 26.1791 135.03 24.5086L146.313 24.5091C143.693 26.0932 145.224 28.6984 147.132 28.6524C149.037 28.6059 150.358 25.8641 147.748 24.5213C148.633 24.4016 149.954 24.5828 150.633 22.9016C151.233 21.4163 150.358 20.2175 149.59 19.7269C150.318 17.9894 150.27 17.9154 150.748 16.0055C151.223 14.1061 153.464 4.82501 153.887 4.31212C154.725 3.29687 156.853 3.88979 158.209 3.75461C158.922 3.68359 159.225 2.90585 158.815 2.33995C158.465 1.85602 157.297 2.0307 156.581 2.0307C154.621 2.0307 153.738 1.87577 152.661 3.09098C151.927 3.91854 151.627 5.48526 151.317 6.70354Z" fill="#00AEEF"/>
<path fill-rule="evenodd" clip-rule="evenodd" d="M142.561 19.2005C143.61 19.2005 145.761 19.2437 146.689 19.172C146.287 18.8538 136.465 9.00646 136.226 8.67378L136.059 8.43125L131.519 8.43595C131.909 8.75677 132.438 9.35695 132.82 9.73957L141.71 18.6293C141.958 18.8808 142.121 19.2005 142.561 19.2005Z" fill="white"/>
<path fill-rule="evenodd" clip-rule="evenodd" d="M140.948 19.1943C140.356 18.2777 130.66 9.16403 130.419 8.43153C128.931 8.43071 128.794 8.29113 129.145 9.75143C129.335 10.5428 129.487 11.4554 129.712 12.2362C129.845 12.6942 130.131 12.7883 130.409 13.065L135.692 18.3488C136.617 19.2718 136.163 19.2022 137.888 19.2005C138.905 19.1992 139.932 19.2155 140.948 19.1943Z" fill="white"/>
<path fill-rule="evenodd" clip-rule="evenodd" d="M147.837 18.9722C148.334 18.6084 148.377 18.3902 148.575 17.5905C149.161 15.2246 149.428 16.141 147.171 13.8796L142.599 9.30791C142.366 9.07552 141.895 8.43123 141.545 8.43123L137.258 8.43624C137.698 9.08104 139.228 10.4554 139.882 11.1101C141.108 12.3369 147.426 18.7737 147.837 18.9722Z" fill="white"/>
<path fill-rule="evenodd" clip-rule="evenodd" d="M149.255 14.6932C149.452 14.3474 149.874 12.3917 150.045 11.746C150.27 10.896 150.095 11.0643 148.618 9.58749C148.342 9.31191 147.63 8.43123 147.234 8.43123C146.157 8.43123 143.952 8.38712 142.998 8.45968L149.255 14.6932Z" fill="white"/>
<path fill-rule="evenodd" clip-rule="evenodd" d="M132.706 19.1999L134.84 19.2005L135.233 19.1857L130.195 14.1247C130.272 14.994 130.647 16.2993 130.853 17.1876C131.145 18.4477 131.234 19.1996 132.706 19.1999Z" fill="white"/>
<path fill-rule="evenodd" clip-rule="evenodd" d="M150.372 10.1393C150.655 9.79461 150.765 8.94555 150.867 8.4565L148.714 8.42836C148.977 8.89162 149.944 9.79666 150.372 10.1393Z" fill="white"/>
<path d="M9.98476 8.91887C9.81745 9.19363 9.59006 9.61422 9.2938 10.1766C9.20365 10.4343 9.04063 10.8032 8.80445 11.2799C8.75287 11.3573 8.6884 11.3958 8.60254 11.3958C8.61124 11.3958 8.20774 11.2456 7.38775 10.9495C6.57205 10.6489 5.89818 10.503 5.37024 10.503C3.829 10.503 3.05628 11.1812 3.05628 12.5377C3.05628 13.2933 3.59732 13.95 4.67898 14.5125C6.49919 15.461 7.50379 16.0061 7.697 16.148C8.77866 17.0107 9.31939 18.1785 9.31939 19.6466C9.31939 21.5225 8.57675 23.0034 7.09589 24.0854C5.76064 25.0554 4.12086 25.5447 2.17622 25.5447C1.27057 25.5447 0.785511 25.4418 0.716845 25.2399C0.682563 24.9223 0.609496 24.4587 0.489357 23.8449C0.424989 23.5916 0.317641 23.218 0.175807 22.7115C0.150224 22.6385 0.137227 22.5656 0.137227 22.5013C0.137227 22.3811 0.201596 22.3251 0.326034 22.3251C0.527937 22.3251 0.836881 22.3423 1.25348 22.3852C1.66537 22.4282 1.97892 22.4496 2.18921 22.4496C4.78633 22.4496 6.08699 21.6127 6.08699 19.934C6.08699 19.1143 5.56345 18.4016 4.51597 17.7965C2.60551 16.706 1.62679 16.1393 1.58381 16.0963C0.527936 15.242 0 14.0959 0 12.6536C0 11.091 0.510847 9.84191 1.53653 8.90587C2.53265 8.00022 3.82471 7.54504 5.40883 7.54504C6.07829 7.54504 6.85111 7.65678 7.72248 7.87138C8.67131 8.11626 9.38376 8.40812 9.86032 8.75155C9.9033 8.78573 9.94618 8.84171 9.98476 8.91887ZM22.889 24.8494C22.889 25.1627 22.8031 25.3174 22.627 25.3174C22.3653 25.3174 21.9746 25.313 21.4467 25.3043C20.9144 25.2959 20.5237 25.2915 20.2617 25.2915C20.0514 25.2915 19.9484 25.154 19.9484 24.8753C19.9484 24.4758 19.9612 23.8664 19.9913 23.055C20.0212 22.2393 20.0343 21.6255 20.0343 21.2177C20.0343 20.8313 20.0212 20.2477 19.9913 19.4619C19.9612 18.6762 19.9484 18.0883 19.9484 17.6932C19.9484 16.1866 19.2357 15.4308 17.8106 15.4308C17.347 15.4308 16.7459 15.6629 15.999 16.1221C15.2007 16.6159 14.8056 17.0709 14.8056 17.4829V24.9524C14.8056 25.1969 14.7154 25.3174 14.5396 25.3174C14.282 25.3174 13.8913 25.313 13.3718 25.3043C12.8525 25.2959 12.4618 25.2915 12.1999 25.2915C12.0067 25.2915 11.9124 25.1798 11.9124 24.9524V18.8781C11.9124 17.8864 11.8564 15.7831 11.7491 12.5635C11.732 11.5677 11.6591 10.0908 11.5347 8.13775C11.5173 8.0345 11.5089 7.97003 11.5089 7.93585C11.5089 7.79422 11.5602 7.70407 11.6591 7.66958C11.8007 7.62251 12.2773 7.59672 13.0799 7.59672C13.256 7.59672 13.522 7.56653 13.8741 7.50216C14.2261 7.43779 14.4792 7.40791 14.6426 7.40791C14.7499 7.40791 14.8056 7.48937 14.8056 7.64809C14.8056 8.4339 14.7714 9.61861 14.7113 11.1983C14.647 12.7782 14.6168 13.9628 14.6168 14.7527C14.6168 14.9459 14.6511 15.0447 14.7154 15.0532C15.1447 14.6926 15.6984 14.2589 16.3767 13.7482C17.1967 13.2332 18.0638 12.9798 18.9781 12.9798C20.5578 12.9798 21.6399 13.4476 22.2366 14.3878C22.6656 15.0746 22.8803 16.1651 22.8803 17.6589C22.8803 17.9165 22.8718 18.3157 22.8588 18.8568C22.846 19.3974 22.8417 19.8012 22.8417 20.0585C22.8417 20.5952 22.8504 21.3981 22.8675 22.4627C22.8846 23.5272 22.889 24.3215 22.889 24.8494ZM36.6988 19.1656C36.6988 20.9171 36.1235 22.4154 34.9774 23.6561C33.8011 24.9397 32.3461 25.5792 30.6117 25.5792C28.8689 25.5792 27.4093 24.9437 26.2373 23.6688C25.0869 22.4369 24.5117 20.9429 24.5117 19.1915C24.5117 17.44 25.0869 15.9461 26.2373 14.7141C27.418 13.4563 28.8773 12.8294 30.6117 12.8294C32.3417 12.8294 33.7884 13.4563 34.9646 14.7141C36.1195 15.9376 36.6988 17.4229 36.6988 19.1656ZM34.046 19.1915C34.046 18.1698 33.7326 17.2984 33.1014 16.5773C32.4491 15.8132 31.6206 15.4308 30.6117 15.4308C29.6072 15.4308 28.77 15.8089 28.1089 16.5642C27.4823 17.294 27.1647 18.1698 27.1647 19.1915C27.1647 20.196 27.4867 21.0718 28.122 21.8057C28.7915 22.5871 29.6243 22.9778 30.6117 22.9778C31.6119 22.9778 32.4404 22.5871 33.1014 21.8057C33.7326 21.0718 34.046 20.196 34.046 19.1915ZM51.0498 19.2431C51.0498 20.9342 50.5131 22.4067 49.4399 23.6561C48.3152 24.9739 46.9202 25.6306 45.2502 25.6306C44.2115 25.6306 43.3012 25.3087 42.52 24.6647C42.1679 24.3342 41.816 24.0036 41.4638 23.6688C41.4125 23.6947 41.3824 23.7634 41.3653 23.8707C41.3568 23.922 41.3525 24.3899 41.3525 25.2788L41.3394 28.8244C41.3394 29.095 41.2408 29.2279 41.0476 29.2279C39.7597 29.2279 38.9955 29.2107 38.7594 29.1766C38.5662 29.1508 38.472 29.0434 38.472 28.8502C38.472 27.7769 38.4804 26.1672 38.4978 24.021C38.5149 21.8744 38.5234 20.2648 38.5234 19.1915C38.5234 17.2213 38.3945 15.3709 38.1457 13.6451C38.1286 13.5465 38.1199 13.4778 38.1199 13.4435C38.1199 13.3534 38.1627 13.2933 38.2443 13.2675C38.5621 13.2503 39.0301 13.2074 39.6395 13.13C40.4637 12.9798 40.9232 12.9026 41.0261 12.9026C41.1677 12.9026 41.2579 13.1558 41.3008 13.6582C41.3267 13.993 41.3481 14.3234 41.3653 14.6497C41.3653 14.7184 41.391 14.7872 41.4383 14.8516C41.4984 14.8214 41.5672 14.7614 41.6399 14.6755C42.8161 13.4778 44.0009 12.8767 45.1986 12.8767C46.8598 12.8767 48.2596 13.5294 49.4013 14.8257C50.5003 16.0792 51.0498 17.5473 51.0498 19.2431ZM48.1049 19.1915C48.1049 18.1869 47.7916 17.3027 47.1604 16.5387C46.4993 15.723 45.6752 15.3195 44.6834 15.3195C43.7134 15.3195 42.9148 15.7358 42.2926 16.5773C41.7258 17.3283 41.4383 18.2128 41.4383 19.2173C41.4383 20.239 41.7345 21.1274 42.3181 21.8831C42.9665 22.6988 43.7865 23.1023 44.7867 23.1023C45.7396 23.1023 46.5466 22.6814 47.199 21.8315C47.8044 21.046 48.1049 20.1658 48.1049 19.1915ZM65.5766 19.2431C65.5766 20.9342 65.04 22.4067 63.9667 23.6561C62.842 24.9739 61.447 25.6306 59.7771 25.6306C58.7383 25.6306 57.828 25.3087 57.0469 24.6647C56.6947 24.3342 56.3429 24.0036 55.9907 23.6688C55.9394 23.6947 55.9092 23.7634 55.8921 23.8707C55.8837 23.922 55.8793 24.3899 55.8793 25.2788L55.8663 28.8244C55.8663 29.095 55.7676 29.2279 55.5744 29.2279C54.2865 29.2279 53.5225 29.2107 53.2863 29.1766C53.0931 29.1508 52.9988 29.0434 52.9988 28.8502C52.9988 27.7769 53.0072 26.1672 53.0246 24.021C53.0418 21.8744 53.0502 20.2648 53.0502 19.1915C53.0502 17.2213 52.9214 15.3709 52.6725 13.6451C52.6554 13.5465 52.6467 13.4778 52.6467 13.4435C52.6467 13.3534 52.6896 13.2933 52.7711 13.2675C53.0891 13.2503 53.5569 13.2074 54.1664 13.13C54.9905 12.9798 55.45 12.9026 55.553 12.9026C55.6945 12.9026 55.7847 13.1558 55.8277 13.6582C55.8535 13.993 55.875 14.3234 55.8921 14.6497C55.8921 14.7184 55.9179 14.7872 55.9652 14.8516C56.0252 14.8214 56.094 14.7614 56.1667 14.6755C57.3431 13.4778 58.5277 12.8767 59.7255 12.8767C61.3868 12.8767 62.7864 13.5294 63.9281 14.8257C65.0272 16.0792 65.5766 17.5473 65.5766 19.2431ZM62.6318 19.1915C62.6318 18.1869 62.3185 17.3027 61.6872 16.5387C61.0261 15.723 60.2021 15.3195 59.2102 15.3195C58.2402 15.3195 57.4416 15.7358 56.8194 16.5773C56.2526 17.3283 55.9652 18.2128 55.9652 19.2173C55.9652 20.239 56.2613 21.1274 56.845 21.8831C57.4933 22.6988 58.3134 23.1023 59.3135 23.1023C60.2664 23.1023 61.0734 22.6814 61.7258 21.8315C62.3312 21.046 62.6318 20.1658 62.6318 19.1915ZM78.1759 18.5391C78.1759 19.1572 77.9099 19.5735 77.3733 19.7838C77.0127 19.9169 74.4156 20.1658 69.5861 20.5264C69.6978 21.265 70.1013 21.8915 70.8053 22.411C71.4792 22.9047 72.2005 23.1536 72.969 23.1536C74.2952 23.1536 75.5101 22.7243 76.6176 21.8701C76.7508 21.7627 76.8882 21.6513 77.0211 21.544C77.0855 21.544 77.1328 21.5524 77.1543 21.5698C77.1714 21.5869 77.3303 21.8788 77.6221 22.4412C77.9183 23.0077 78.0645 23.3126 78.0645 23.3555C78.0645 23.4069 77.9958 23.5015 77.8626 23.643C76.6306 24.9524 75.0509 25.6048 73.1233 25.6048C71.1745 25.6048 69.6247 25.0252 68.4702 23.862C67.311 22.7028 66.7314 21.1532 66.7314 19.2173C66.7314 17.4916 67.2852 15.9847 68.3927 14.7013C69.5562 13.3705 70.9857 12.7009 72.6812 12.7009C74.2566 12.7009 75.5745 13.2802 76.6306 14.4394C77.6607 15.5597 78.1759 16.9291 78.1759 18.5391ZM75.1841 17.7707C75.1841 17.075 74.9093 16.4568 74.3597 15.9205C73.8102 15.3839 73.192 15.1176 72.5052 15.1176C71.7324 15.1176 71.0501 15.4269 70.4491 16.049C69.848 16.6672 69.5518 17.3628 69.5518 18.1356C69.5518 18.3113 69.7022 18.4016 70.0026 18.4016C71.243 18.4016 72.7285 18.2727 74.4542 18.0239C74.9392 17.9551 75.1841 17.8692 75.1841 17.7707ZM87.1349 13.4821C87.1349 14.4052 87.0706 15.242 86.9461 15.9977C86.9204 16.1909 86.8345 16.2851 86.6929 16.2851C86.5169 16.2851 86.2508 16.268 85.8946 16.2295C85.5381 16.1909 85.2678 16.1738 85.0833 16.1738C84.0271 16.1738 83.3532 16.4699 83.0571 17.0666C82.881 17.4272 82.7951 18.1785 82.7951 19.3159V20.7024C82.7951 21.1704 82.8122 21.8831 82.8508 22.8404C82.8893 23.7933 82.9068 24.506 82.9068 24.9782C82.9068 25.2013 82.8122 25.3174 82.6191 25.3174C82.3571 25.3174 81.9666 25.313 81.4344 25.3043C80.9064 25.2959 80.5157 25.2915 80.2538 25.2915C80.0606 25.2915 79.9663 25.1885 79.9663 24.9782C79.9663 24.3001 79.9747 23.274 79.9962 21.9089C80.0176 20.5438 80.0264 19.5134 80.0264 18.8266C80.0264 16.7574 79.8332 15.0918 79.451 13.834C79.434 13.7656 79.4253 13.7183 79.4253 13.6837C79.4253 13.5808 79.4769 13.512 79.5883 13.4691C79.8975 13.4348 80.3352 13.3876 80.8933 13.3191C81.7993 13.1515 82.2199 13.0656 82.1511 13.0656C82.2886 13.0656 82.3745 13.3148 82.4174 13.8085C82.4604 14.3019 82.5332 14.5511 82.6449 14.5511C82.662 14.5511 82.6834 14.5424 82.7049 14.5253C83.0484 14.3062 83.3962 14.0916 83.7396 13.8728C84.1129 13.6451 84.4994 13.4778 84.8942 13.3705C85.2205 13.2675 85.6411 13.2158 86.1519 13.2158C86.8046 13.2158 87.1349 13.3061 87.1349 13.4821Z" fill="#0EABE3"/>
<path d="M95.5232 22.9778C95.5232 23.1623 95.5061 23.4112 95.4718 23.7332C95.4289 24.1283 95.403 24.3815 95.3943 24.4972C95.386 24.6519 95.3729 24.7421 95.3602 24.7763C95.3256 24.8364 95.2441 24.8924 95.1197 24.9524C94.4327 25.2788 93.351 25.4418 91.8743 25.4418C89.9124 25.4418 88.9337 24.5532 88.9337 22.7759C88.9337 22.0633 88.9468 20.9946 88.981 19.5651C89.0153 18.1356 89.0327 17.0622 89.0327 16.3496C89.0327 16.006 88.8609 15.8216 88.5174 15.7957C88.2083 15.7957 87.8993 15.7918 87.5988 15.7831C87.4227 15.7401 87.3325 15.3966 87.3325 14.7527C87.3325 14.5081 87.3499 14.2549 87.3841 13.9842C87.41 13.7826 87.5431 13.6623 87.7876 13.6193C87.9979 13.6193 88.2039 13.6152 88.4014 13.6065C88.7878 13.5894 88.981 13.4177 88.981 13.0914C88.981 12.7567 88.9723 12.2458 88.9508 11.5588C88.9293 10.872 88.9209 10.3568 88.9209 10.0093C88.9209 9.3995 89.0367 9.09496 89.2729 9.09496C89.3459 9.09496 90.1358 9.2238 91.6341 9.48137C91.8273 9.50685 91.9259 9.60141 91.9259 9.76013C91.9259 10.1293 91.8958 10.6832 91.8444 11.4217C91.7884 12.1555 91.7628 12.7094 91.7628 13.0786C91.7628 13.3232 91.8743 13.4435 92.102 13.4435H95.1197C95.2615 13.4435 95.3343 13.4949 95.3343 13.5938C95.3343 13.6968 95.3172 13.8554 95.287 14.0788C95.2615 14.3019 95.2441 14.4695 95.2441 14.5769C95.2441 14.7013 95.2484 14.8945 95.2571 15.1562C95.2656 15.4137 95.2699 15.6069 95.2699 15.7314C95.2699 15.8947 95.1542 15.9719 94.9181 15.9719C94.583 15.9719 94.0765 15.9504 93.3983 15.9031C92.7158 15.8561 92.2093 15.8346 91.8743 15.8346C91.8058 15.8346 91.7585 16.0748 91.724 16.5515C91.6811 17.1481 91.6596 17.981 91.6596 19.0542V20.9258C91.6596 21.647 91.7284 22.1534 91.8615 22.4369C92.0634 22.8745 92.4797 23.0892 93.1065 23.0892C93.3681 23.0892 93.7501 23.0336 94.2526 22.9218C94.7548 22.8061 95.1284 22.7501 95.3728 22.7501C95.4718 22.7501 95.5232 22.8276 95.5232 22.9778ZM100.593 10.2495C100.593 11.2799 100.018 11.795 98.8672 11.795C97.704 11.795 97.1201 11.2799 97.1201 10.2495C97.1201 9.79031 97.3005 9.4082 97.661 9.10335C97.9958 8.8203 98.3992 8.67836 98.8672 8.67836C99.3394 8.67836 99.7429 8.82429 100.082 9.11645C100.421 9.41261 100.593 9.79031 100.593 10.2495ZM100.503 13.6582C100.503 14.3019 100.464 15.2765 100.383 16.5816C100.305 17.8864 100.262 18.8651 100.262 19.5178C100.262 20.1316 100.275 21.046 100.301 22.2652C100.327 23.4887 100.34 24.3986 100.34 25.0037C100.34 25.1798 100.262 25.2657 100.112 25.2657H97.661C97.4849 25.2657 97.3948 25.0939 97.3948 24.7505C97.3948 24.1712 97.4121 23.3038 97.442 22.1407C97.4722 20.9815 97.4849 20.1057 97.4849 19.5178C97.4849 18.8651 97.4376 17.882 97.3391 16.5773C97.2445 15.2678 97.1974 14.2891 97.1974 13.6324C97.1974 13.4905 97.2833 13.4177 97.4591 13.4177C97.6094 13.4177 97.8411 13.4392 98.1591 13.4821C98.4724 13.5251 98.7085 13.5465 98.8672 13.5465C99.0261 13.5465 99.2622 13.5251 99.5799 13.4821C99.8932 13.4392 100.129 13.4177 100.288 13.4177C100.43 13.4177 100.503 13.4992 100.503 13.6582ZM112.325 22.9003C112.325 22.9433 112.261 23.2395 112.136 23.7933C111.999 24.3899 111.926 24.7592 111.909 24.9007C111.874 25.1969 111.802 25.3431 111.681 25.3431C111.389 25.3431 110.995 25.3257 110.501 25.2915C109.938 25.2486 109.548 25.2228 109.329 25.2143C108.771 25.2013 107.964 25.1929 106.916 25.1929C106.101 25.1929 105.199 25.2228 104.212 25.2915C102.971 25.3774 102.439 25.416 102.615 25.416C102.439 25.416 102.327 25.3431 102.276 25.1929C102.16 24.7894 102.1 24.3171 102.1 23.7805C102.1 23.7073 102.104 23.6001 102.113 23.4629C102.121 23.3253 102.125 23.2224 102.125 23.1536C102.125 23.0379 102.216 22.896 102.396 22.733C102.576 22.57 103.469 21.6212 105.079 19.8827C105.895 19.0368 107.045 17.7321 108.539 15.9719H102.993C102.86 15.9719 102.791 15.886 102.791 15.7099C102.791 15.4654 102.842 15.1005 102.95 14.6198C103.053 14.1389 103.104 13.7782 103.104 13.5465C103.104 13.4435 103.224 13.3962 103.456 13.3962C103.928 13.3962 104.628 13.4133 105.556 13.4563C106.487 13.4992 107.187 13.5207 107.659 13.5207C109.955 13.5207 111.252 13.5378 111.544 13.5723C111.754 13.5938 111.857 13.6837 111.857 13.834C111.857 15.1005 111.81 15.8131 111.707 15.9719C111.625 16.0879 110.9 16.9164 109.53 18.4488C108.65 19.449 107.324 20.9302 105.547 22.9003C108.337 22.8276 110.501 22.7887 112.033 22.7887C112.226 22.7887 112.325 22.8276 112.325 22.9003ZM124.482 18.5391C124.482 19.1572 124.216 19.5735 123.68 19.7838C123.319 19.9169 120.722 20.1658 115.893 20.5264C116.004 21.2649 116.408 21.8915 117.112 22.411C117.785 22.9047 118.507 23.1536 119.275 23.1536C120.602 23.1536 121.816 22.7243 122.924 21.87C123.057 21.7627 123.195 21.6513 123.327 21.544C123.392 21.544 123.439 21.5524 123.461 21.5698C123.478 21.5869 123.637 21.8787 123.929 22.4412C124.225 23.0077 124.371 23.3125 124.371 23.3555C124.371 23.4069 124.302 23.5014 124.169 23.643C122.937 24.9524 121.357 25.6048 119.43 25.6048C117.481 25.6048 115.931 25.0252 114.777 23.862C113.617 22.7028 113.038 21.1532 113.038 19.2173C113.038 17.4916 113.592 15.9847 114.699 14.7013C115.863 13.3704 117.292 12.7009 118.988 12.7009C120.563 12.7009 121.881 13.2802 122.937 14.4394C123.967 15.5597 124.482 16.9291 124.482 18.5391ZM121.49 17.7707C121.49 17.075 121.216 16.4568 120.666 15.9205C120.117 15.3839 119.498 15.1176 118.812 15.1176C118.039 15.1176 117.356 15.4268 116.755 16.049C116.154 16.6672 115.858 17.3628 115.858 18.1356C115.858 18.3113 116.008 18.4016 116.309 18.4016C117.549 18.4016 119.035 18.2727 120.761 18.0238C121.246 17.9551 121.49 17.8692 121.49 17.7707Z" fill="#F5821F"/>
<path d="M157.786 12.024C157.386 12.024 157.015 11.952 156.674 11.808C156.333 11.664 156.034 11.464 155.778 11.208C155.522 10.9467 155.322 10.6453 155.178 10.304C155.039 9.96267 154.97 9.59467 154.97 9.2C154.97 8.80533 155.042 8.43733 155.186 8.096C155.33 7.75467 155.53 7.456 155.786 7.2C156.042 6.93867 156.341 6.736 156.682 6.592C157.029 6.448 157.402 6.376 157.802 6.376C158.202 6.376 158.573 6.448 158.914 6.592C159.261 6.73067 159.559 6.928 159.81 7.184C160.066 7.44 160.263 7.73867 160.402 8.08C160.546 8.416 160.618 8.784 160.618 9.184C160.618 9.584 160.546 9.95733 160.402 10.304C160.258 10.6453 160.055 10.9467 159.794 11.208C159.538 11.464 159.239 11.664 158.898 11.808C158.557 11.952 158.186 12.024 157.786 12.024ZM158.738 10.8L157.938 9.568H158.49L159.29 10.8H158.738ZM157.786 11.664C158.133 11.664 158.455 11.6 158.754 11.472C159.053 11.344 159.314 11.168 159.538 10.944C159.762 10.72 159.935 10.4587 160.058 10.16C160.181 9.856 160.242 9.53067 160.242 9.184C160.242 8.83733 160.181 8.51467 160.058 8.216C159.935 7.91733 159.765 7.65867 159.546 7.44C159.327 7.22133 159.069 7.05067 158.77 6.928C158.477 6.8 158.154 6.736 157.802 6.736C157.45 6.736 157.122 6.8 156.818 6.928C156.519 7.05067 156.261 7.22667 156.042 7.456C155.823 7.68 155.653 7.94133 155.53 8.24C155.407 8.53333 155.346 8.85333 155.346 9.2C155.346 9.54667 155.407 9.86933 155.53 10.168C155.653 10.4667 155.823 10.728 156.042 10.952C156.261 11.176 156.519 11.352 156.818 11.48C157.117 11.6027 157.439 11.664 157.786 11.664ZM156.658 10.8V7.6H157.938C158.343 7.6 158.661 7.69867 158.89 7.896C159.119 8.09333 159.234 8.35733 159.234 8.688C159.234 9.02933 159.119 9.296 158.89 9.488C158.661 9.68 158.343 9.776 157.938 9.776H157.202V10.8H156.658ZM157.194 9.328H157.898C158.154 9.328 158.351 9.272 158.49 9.16C158.634 9.048 158.706 8.89067 158.706 8.688C158.706 8.48533 158.634 8.33067 158.49 8.224C158.351 8.112 158.154 8.056 157.898 8.056H157.194V9.328Z" fill="#0EABE3"/>
</svg>
